# xmcd
#
# Track frame offsets: 
#        150
#        10391
#        21731
#        34651
#        43534
#        54636
#        67132
#        78225
#        91175
#        100736
#        112554
#        123661
#        136199
#        149883
#        158561
#        168613
#        178298
#        189991
#        201633
#        213506
#
# Disc length: 2977 seconds
#
# Revision: 0
# Processed by: cddbd v1.5.2PL0 Copyright (c) Steve Scherf et al.
# Submitted via: ExactAudioCopyFreeDBPlugin 1.0
#
DISCID=250b9f14
DTITLE=Hank Snow - Milestones Of A Country Legend [CD 10)
DYEAR=1900
DGENRE=Country
TTITLE0=Promised to John
TTITLE1=I Never Will Marry
TTITLE2=My Adobe Hacienda
TTITLE3=Mockin´ Bird Hill
TTITLE4=No Letter Today
TTITLE5=I Dreamed of an Old Love Affair
TTITLE6=For Sale
TTITLE7=Rose of Old Monterey
TTITLE8=If It´s Wrong to Love You
TTITLE9=WhenMy Blue Moon Turns to Gold Again
TTITLE10=Let´s Pretend
TTITLE11=A Pair of Broken Hearts
TTITLE12=The New Blue Velvet Band
TTITLE13=A Woman Captured Me
TTITLE14=Big Wheels
TTITLE15=I Wish I Was the Moon
TTITLE16=The Party of the Second Part
TTITLE17=The Last Ride
TTITLE18=Miller´s Cave
TTITLE19=CaseyJones Was His Name
EXTD=
EXTT0=
EXTT1=
EXTT2=
EXTT3=
EXTT4=
EXTT5=
EXTT6=
EXTT7=
EXTT8=
EXTT9=
EXTT10=
EXTT11=
EXTT12=
EXTT13=
EXTT14=
EXTT15=
EXTT16=
EXTT17=
EXTT18=
EXTT19=
PLAYORDER=
